<svg xmlns="http://www.w3.org/2000/svg" viewBox="0 0 800 300"><defs><style>.cls-1{fill:#551c6a;}</style></defs><g id="Rectangle"><path class="cls-1" d="M868.17,238A39.88,39.88,0,0,1,908,277.83V490.17A39.88,39.88,0,0,1,868.17,530H155.83A39.88,39.88,0,0,1,116,490.17V277.83A39.88,39.88,0,0,1,155.83,238H868.17m0-4H155.83A44,44,0,0,0,112,277.83V490.17A44,44,0,0,0,155.83,534H868.17A44,44,0,0,0,912,490.17V277.83A44,44,0,0,0,868.17,234Z" transform="translate(-112 -234)"/></g><g id="Lines"><g id="Falling_right" data-name="Falling right"><path class="cls-1" d="M131.5,274.5c6.13-2.83,12.35-5.39,18.61-7.85,3.12-1.25,6.28-2.41,9.42-3.61l9.47-3.45,9.52-3.3c3.2-1.05,6.37-2.15,9.59-3.14,6.41-2.05,12.85-4,19.39-5.65-6.12,2.84-12.35,5.4-18.61,7.85-3.12,1.26-6.28,2.41-9.41,3.61L170,262.41l-9.53,3.3c-3.19,1.05-6.37,2.14-9.58,3.14C144.48,270.89,138,272.83,131.5,274.5Z" transform="translate(-112 -234)"/><path class="cls-1" d="M128.5,303.5q19.58-8,39.36-15.35c6.57-2.5,13.19-4.91,19.79-7.36l19.84-7.2,19.91-7c6.65-2.3,13.28-4.65,19.95-6.89q20-6.85,40.15-13.15-19.58,8-39.35,15.35c-6.58,2.51-13.2,4.91-19.8,7.36l-19.84,7.2-19.91,7c-6.65,2.3-13.28,4.64-20,6.89Q148.68,297.19,128.5,303.5Z" transform="translate(-112 -234)"/><path class="cls-1" d="M126.5,333.5c9.93-3.94,19.92-7.71,29.88-11.56l30-11.27c20-7.51,40.06-14.79,60.13-22.08s40.19-14.43,60.37-21.43l30.27-10.48c10.12-3.39,20.21-6.87,30.37-10.18-9.93,3.94-19.92,7.71-29.88,11.57l-30,11.27c-20,7.5-40.06,14.79-60.13,22.07s-40.19,14.43-60.37,21.42l-30.27,10.48C146.75,326.71,136.66,330.19,126.5,333.5Z" transform="translate(-112 -234)"/><path class="cls-1" d="M132.5,388.5c15.72-6,31.5-11.79,47.25-17.69l47.36-17.39c15.78-5.84,31.62-11.47,47.43-17.2L322,319.09l47.54-16.88c15.86-5.6,31.68-11.3,47.57-16.8l47.64-16.6c15.92-5.43,31.8-11,47.75-16.31-15.72,6-31.5,11.79-47.25,17.69l-47.36,17.4c-15.77,5.83-31.62,11.46-47.43,17.2L323,321.91l-47.54,16.87c-15.86,5.61-31.68,11.3-47.57,16.8l-47.64,16.61C164.33,377.62,148.45,383.15,132.5,388.5Z" transform="translate(-112 -234)"/><path class="cls-1" d="M132.5,419.5c20-7.53,40-14.87,60-22.31l60.11-22c20-7.38,40.12-14.56,60.18-21.83L373,331.59l60.3-21.5c20.11-7.14,40.18-14.39,60.32-21.43L554,267.43c20.17-7,40.3-14,60.5-20.93-20,7.53-40,14.87-60,22.32l-60.11,22c-20,7.38-40.12,14.54-60.18,21.82L374,334.41l-60.3,21.5c-20.11,7.14-40.18,14.38-60.32,21.42L193,398.56C172.83,405.54,152.7,412.61,132.5,419.5Z" transform="translate(-112 -234)"/><path class="cls-1" d="M132.5,452.5c23.39-8.73,46.84-17.29,70.25-25.94l70.36-25.64c23.44-8.59,46.95-17,70.43-25.45L414,350.09,484.54,325c23.52-8.34,47-16.8,70.57-25l70.64-24.85c23.59-8.18,47.14-16.46,70.75-24.56-23.39,8.74-46.84,17.29-70.25,25.94l-70.36,25.65c-23.44,8.58-46.95,17-70.43,25.45L415,352.91,344.46,378c-23.52,8.36-47,16.8-70.57,25.05l-70.64,24.86C179.66,436.12,156.11,444.4,132.5,452.5Z" transform="translate(-112 -234)"/><path class="cls-1" d="M126.5,361.5c13.14-5.11,26.34-10,39.5-15.06l39.61-14.77C232,321.83,258.5,312.21,285,302.59s53-19.1,79.62-28.43l39.89-14c13.33-4.55,26.63-9.21,40-13.68-13.13,5.11-26.33,10-39.5,15.07l-39.61,14.77C339,286.17,312.5,295.79,286,305.41s-53,19.09-79.62,28.42l-39.89,14C153.16,352.37,139.86,357,126.5,361.5Z" transform="translate(-112 -234)"/><path class="cls-1" d="M150.5,515.5l90.15-33.58,90.25-33.28,180.67-66.12,180.91-65.46L783,284.57c30.21-10.73,60.4-21.56,90.64-32.21-30,11.29-60.09,22.39-90.14,33.59l-90.25,33.28L512.59,385.34,331.68,450.8l-90.53,32.5Z" transform="translate(-112 -234)"/><path class="cls-1" d="M128.5,489.5c27.13-10.23,54.33-20.29,81.5-30.44l81.61-30.14c27.19-10.09,54.45-20,81.67-29.95L455,369.09l163.62-59.17,81.89-29.36c27.33-9.68,54.63-19.46,82-29.06-27.13,10.24-54.33,20.29-81.5,30.44l-81.61,30.14L456,371.91l-81.79,29.62c-27.28,9.85-54.52,19.8-81.83,29.55L210.5,460.44C183.17,470.12,155.87,479.9,128.5,489.5Z" transform="translate(-112 -234)"/><path class="cls-1" d="M821.54,521.53c6.12-2.83,12.35-5.39,18.61-7.84,3.12-1.26,6.28-2.41,9.41-3.62l9.48-3.45,9.52-3.3c3.2-1.05,6.37-2.14,9.59-3.14,6.4-2,12.85-4,19.39-5.65-6.13,2.84-12.35,5.4-18.61,7.86-3.12,1.25-6.28,2.4-9.42,3.61L860,509.45l-9.53,3.29c-3.19,1-6.37,2.15-9.58,3.14C834.52,517.93,828.08,519.87,821.54,521.53Z" transform="translate(-112 -234)"/><path class="cls-1" d="M738.54,521.53q19.58-7.93,39.36-15.34c6.57-2.51,13.19-4.91,19.79-7.36l19.84-7.21,19.9-7.05c6.66-2.29,13.29-4.64,20-6.89q20-6.84,40.15-13.15-19.57,8-39.36,15.36c-6.57,2.5-13.19,4.9-19.79,7.36l-19.85,7.2-19.9,7c-6.65,2.3-13.29,4.65-20,6.89Q758.72,515.24,738.54,521.53Z" transform="translate(-112 -234)"/><path class="cls-1" d="M666.54,521.53q28.58-11.31,57.34-22.1c9.58-3.63,19.19-7.16,28.78-10.74l28.85-10.58,28.89-10.43c9.66-3.42,19.29-6.9,29-10.27q29-10.23,58.14-19.91-28.57,11.33-57.34,22.11c-9.58,3.63-19.19,7.16-28.78,10.74l-28.85,10.58-28.9,10.42c-9.65,3.43-19.28,6.9-29,10.27Q695.7,511.85,666.54,521.53Z" transform="translate(-112 -234)"/><path class="cls-1" d="M517.54,519.53c15.72-6,31.5-11.78,47.25-17.68l47.36-17.4c15.77-5.83,31.62-11.47,47.43-17.2L707,450.12l47.55-16.87c15.86-5.6,31.68-11.31,47.57-16.8l47.64-16.61c15.92-5.43,31.8-11,47.75-16.31-15.72,6-31.5,11.8-47.25,17.7l-47.36,17.39c-15.77,5.84-31.62,11.47-47.43,17.2L708,453,660.5,469.82c-15.86,5.6-31.68,11.3-47.57,16.8l-47.64,16.6C549.37,508.66,533.49,514.19,517.54,519.53Z" transform="translate(-112 -234)"/><path class="cls-1" d="M414.54,521.53c20-7.52,40-14.87,60-22.31l60.11-22c20-7.37,40.12-14.55,60.18-21.82L655,433.62l60.3-21.5c20.1-7.14,40.17-14.38,60.32-21.42L836,369.47c20.17-7,40.3-14.05,60.5-20.94-20,7.53-40,14.88-60,22.32l-60.11,22c-20,7.38-40.12,14.55-60.18,21.82L656,436.44l-60.29,21.5c-20.11,7.15-40.18,14.39-60.32,21.43L475,500.6C454.87,507.57,434.74,514.64,414.54,521.53Z" transform="translate(-112 -234)"/><path class="cls-1" d="M331.54,517.53c23.38-8.73,46.84-17.28,70.25-25.93L472.15,466c23.44-8.58,47-17,70.43-25.45L613,415.12,683.58,390c23.52-8.35,47-16.81,70.57-25.05l70.64-24.86c23.58-8.18,47.13-16.46,70.75-24.56-23.39,8.74-46.84,17.3-70.25,26l-70.36,25.64c-23.44,8.59-46.95,17-70.43,25.45L614,418,543.5,443.07c-23.52,8.35-47,16.8-70.57,25.05L402.29,493C378.7,501.16,355.15,509.44,331.54,517.53Z" transform="translate(-112 -234)"/><path class="cls-1" d="M605.5,521.5c12-4.73,24.17-9.29,36.25-13.94l36.36-13.64c24.24-9.09,48.56-18,72.88-26.83s48.69-17.6,73.12-26.17l36.64-12.86c12.25-4.18,24.47-8.46,36.75-12.56-12,4.74-24.17,9.29-36.25,13.94l-36.36,13.64c-24.24,9.09-48.56,18-72.88,26.83s-48.69,17.59-73.12,26.17l-36.64,12.86C630,513.12,617.78,517.4,605.5,521.5Z" transform="translate(-112 -234)"/><path class="cls-1" d="M236.54,521.53c27.13-10.23,54.33-20.28,81.5-30.43L399.65,461c27.18-10.09,54.45-20,81.67-30L563,401.13,726.64,342l81.9-29.36c27.33-9.68,54.63-19.46,82-29.06C863.41,293.77,836.21,303.82,809,314l-81.61,30.14L564.05,403.94l-81.8,29.62c-27.27,9.86-54.51,19.81-81.82,29.55l-81.89,29.36C291.2,502.16,263.9,511.94,236.54,521.53Z" transform="translate(-112 -234)"/><path class="cls-1" d="M131.6,274.52c6.13-2.84,12.35-5.39,18.61-7.85,3.12-1.26,6.28-2.41,9.42-3.61l9.47-3.46,9.53-3.3c3.19-1,6.37-2.14,9.58-3.14,6.41-2,12.85-4,19.39-5.64-6.12,2.84-12.35,5.39-18.61,7.85-3.12,1.26-6.27,2.41-9.41,3.61l-9.48,3.45-9.52,3.3c-3.2,1-6.38,2.14-9.59,3.14C144.58,270.91,138.14,272.85,131.6,274.52Z" transform="translate(-112 -234)"/><path class="cls-1" d="M128.6,303.52q19.59-7.95,39.36-15.35c6.58-2.51,13.19-4.91,19.79-7.36l19.85-7.2,19.9-7.05c6.65-2.3,13.28-4.65,20-6.89q20-6.86,40.14-13.15-19.58,7.95-39.35,15.35c-6.58,2.51-13.2,4.91-19.79,7.36l-19.85,7.2-19.91,7.05c-6.65,2.29-13.28,4.64-20,6.88Q148.78,297.22,128.6,303.52Z" transform="translate(-112 -234)"/><path class="cls-1" d="M126.6,333.52c9.93-3.95,19.92-7.71,29.88-11.57l30-11.26c20-7.51,40.06-14.8,60.13-22.08s40.19-14.43,60.37-21.43l30.27-10.48c10.12-3.39,20.21-6.88,30.37-10.18-9.92,3.94-19.92,7.7-29.87,11.56l-30,11.27c-20,7.51-40.06,14.8-60.13,22.08s-40.19,14.43-60.37,21.42L157,323.33C146.85,326.72,136.76,330.21,126.6,333.52Z" transform="translate(-112 -234)"/><path class="cls-1" d="M132.6,388.52c15.72-6,31.5-11.79,47.25-17.69l47.36-17.39C243,347.6,258.83,342,274.64,336.23l47.46-17.12,47.54-16.88c15.86-5.6,31.68-11.3,47.57-16.8l47.64-16.61c15.92-5.43,31.8-11,47.75-16.3-15.72,6-31.5,11.79-47.25,17.69L418,287.6c-15.77,5.84-31.62,11.47-47.43,17.2l-47.45,17.13L275.56,338.8c-15.86,5.6-31.68,11.3-47.57,16.8l-47.64,16.61C164.43,377.64,148.55,383.17,132.6,388.52Z" transform="translate(-112 -234)"/><path class="cls-1" d="M132.6,419.52c20-7.53,40-14.87,60-22.32l60.11-22c20-7.38,40.12-14.56,60.18-21.83l60.21-21.75,60.29-21.5c20.11-7.14,40.18-14.39,60.32-21.43l60.39-21.23c20.17-7,40.3-14,60.5-20.93-20,7.53-40,14.87-60,22.31l-60.11,22c-20,7.38-40.12,14.55-60.18,21.83l-60.2,21.75-60.3,21.49c-20.1,7.15-40.18,14.39-60.32,21.43L193.1,398.58C172.93,405.56,152.8,412.63,132.6,419.52Z" transform="translate(-112 -234)"/><path class="cls-1" d="M132.6,452.52c23.39-8.74,46.84-17.29,70.25-25.94l70.36-25.64c23.44-8.59,47-17,70.43-25.46l70.46-25.37L484.64,325c23.52-8.35,47-16.8,70.57-25.05l70.64-24.86c23.59-8.18,47.14-16.46,70.75-24.55-23.38,8.73-46.83,17.29-70.25,25.94L556,302.1c-23.44,8.59-46.95,17-70.43,25.45l-70.45,25.38-70.55,25.12c-23.52,8.35-47,16.8-70.57,25.05L203.35,428C179.76,436.14,156.22,444.42,132.6,452.52Z" transform="translate(-112 -234)"/><path class="cls-1" d="M126.6,361.52c13.14-5.11,26.34-10,39.5-15.07l39.61-14.76c26.41-9.84,52.89-19.46,79.38-29.08s53-19.1,79.62-28.43l39.89-14c13.34-4.56,26.64-9.21,40-13.68-13.13,5.11-26.33,10-39.5,15.06l-39.61,14.77c-26.4,9.84-52.89,19.46-79.38,29.08s-53,19.09-79.62,28.42l-39.89,14C153.27,352.39,140,357,126.6,361.52Z" transform="translate(-112 -234)"/><path class="cls-1" d="M150.6,515.52l90.15-33.58L331,448.65l180.67-66.11,180.91-65.46,90.54-32.5c30.22-10.73,60.4-21.55,90.65-32.2-30,11.29-60.1,22.39-90.15,33.59l-90.25,33.28L512.7,385.36,331.79,450.81l-90.54,32.5Z" transform="translate(-112 -234)"/><path class="cls-1" d="M128.6,489.52c27.14-10.24,54.34-20.29,81.5-30.44l81.61-30.14c27.19-10.09,54.45-20,81.68-29.95l81.7-29.88,163.62-59.18,81.89-29.35c27.34-9.69,54.63-19.47,82-29.06-27.13,10.23-54.33,20.29-81.5,30.44L619.5,312.1,456.11,371.93l-81.79,29.62c-27.28,9.85-54.51,19.8-81.83,29.55L210.6,460.45C183.27,470.14,156,479.92,128.6,489.52Z" transform="translate(-112 -234)"/><path class="cls-1" d="M821.64,521.55c6.13-2.83,12.35-5.39,18.61-7.85,3.12-1.25,6.28-2.41,9.42-3.61l9.47-3.45,9.52-3.3c3.2-1,6.37-2.15,9.59-3.14,6.41-2,12.85-4,19.39-5.65-6.12,2.84-12.35,5.4-18.61,7.85-3.12,1.26-6.28,2.41-9.41,3.62l-9.48,3.44-9.53,3.3c-3.19,1-6.37,2.15-9.58,3.14C834.62,517.94,828.18,519.89,821.64,521.55Z" transform="translate(-112 -234)"/><path class="cls-1" d="M738.64,521.55q19.58-7.93,39.36-15.35c6.57-2.5,13.19-4.9,19.79-7.36l19.84-7.2,19.91-7.05c6.65-2.3,13.28-4.65,20-6.89q20-6.85,40.14-13.15-19.57,7.95-39.35,15.35c-6.58,2.51-13.2,4.91-19.8,7.36l-19.84,7.2-19.91,7.05c-6.65,2.3-13.28,4.64-20,6.89Q758.82,515.24,738.64,521.55Z" transform="translate(-112 -234)"/><path class="cls-1" d="M666.64,521.55q28.58-11.32,57.34-22.1c9.58-3.63,19.19-7.16,28.79-10.74l28.84-10.58,28.9-10.43c9.65-3.43,19.28-6.9,29-10.27q29-10.23,58.14-19.91Q869,448.85,840.26,459.63c-9.57,3.63-19.19,7.15-28.78,10.73l-28.85,10.58-28.9,10.43c-9.65,3.42-19.28,6.9-29,10.27Q695.8,511.87,666.64,521.55Z" transform="translate(-112 -234)"/><path class="cls-1" d="M517.64,519.55c15.72-6,31.5-11.79,47.25-17.69l47.36-17.39c15.78-5.84,31.62-11.47,47.43-17.2l47.46-17.13,47.54-16.87c15.86-5.6,31.68-11.31,47.57-16.8l47.64-16.61c15.92-5.43,31.8-11,47.75-16.31-15.72,6-31.5,11.79-47.25,17.69L803,418.64c-15.77,5.84-31.62,11.46-47.43,17.2L708.14,453,660.6,469.83c-15.86,5.61-31.68,11.31-47.57,16.8l-47.64,16.61C549.47,508.67,533.59,514.2,517.64,519.55Z" transform="translate(-112 -234)"/><path class="cls-1" d="M414.64,521.55c20-7.52,40-14.87,60-22.31l60.11-22c20-7.38,40.12-14.55,60.18-21.83l60.2-21.75,60.3-21.5c20.11-7.14,40.18-14.39,60.32-21.42l60.39-21.24c20.17-7,40.3-14,60.5-20.93-20,7.53-40,14.88-60,22.32l-60.11,22c-20,7.38-40.12,14.55-60.18,21.82l-60.2,21.75L595.85,458c-20.11,7.14-40.18,14.38-60.32,21.42l-60.39,21.23C455,507.59,434.84,514.66,414.64,521.55Z" transform="translate(-112 -234)"/><path class="cls-1" d="M331.64,517.55c23.39-8.73,46.84-17.29,70.25-25.94L472.25,466c23.44-8.59,47-17,70.43-25.45l70.45-25.38L683.68,390c23.52-8.35,47-16.81,70.57-25l70.64-24.86c23.59-8.18,47.14-16.46,70.75-24.56-23.39,8.74-46.84,17.29-70.25,25.94L755,367.14c-23.44,8.59-46.95,17-70.43,25.45L614.15,418,543.6,443.08c-23.52,8.36-47,16.81-70.57,25.05L402.39,493C378.8,501.17,355.25,509.45,331.64,517.55Z" transform="translate(-112 -234)"/><path class="cls-1" d="M605.6,521.52c12-4.74,24.17-9.29,36.25-13.94l36.36-13.64c24.24-9.09,48.56-18,72.88-26.83s48.69-17.6,73.12-26.18l36.64-12.85c12.25-4.19,24.47-8.47,36.75-12.56-12.05,4.73-24.17,9.29-36.25,13.94L825,443.1c-24.24,9.09-48.56,18-72.88,26.83S703.42,487.52,679,496.1L642.35,509C630.1,513.14,617.88,517.42,605.6,521.52Z" transform="translate(-112 -234)"/><path class="cls-1" d="M236.64,521.55c27.13-10.23,54.33-20.29,81.5-30.44L399.75,461c27.19-10.08,54.45-20,81.67-30l81.71-29.88L726.75,342l81.89-29.36c27.33-9.68,54.63-19.46,82-29.06-27.13,10.24-54.33,20.29-81.5,30.44l-81.61,30.15L564.15,404l-81.79,29.62c-27.28,9.86-54.52,19.8-81.83,29.55l-81.89,29.36C291.31,502.17,264,512,236.64,521.55Z" transform="translate(-112 -234)"/></g><g id="Layer_4" data-name="Layer 4"><path class="cls-1" d="M892.64,274.52c-6.54-1.67-13-3.61-19.39-5.65-3.21-1-6.39-2.09-9.58-3.14l-9.53-3.3L844.66,259c-3.13-1.2-6.29-2.35-9.41-3.61-6.26-2.46-12.49-5-18.61-7.85,6.54,1.66,13,3.6,19.39,5.64,3.22,1,6.39,2.1,9.59,3.14l9.52,3.3,9.47,3.46c3.14,1.2,6.3,2.35,9.42,3.61C880.29,269.13,886.51,271.68,892.64,274.52Z" transform="translate(-112 -234)"/><path class="cls-1" d="M895.64,303.52q-20.17-6.31-40.14-13.16c-6.68-2.24-13.31-4.59-20-6.88l-19.91-7.05-19.84-7.2c-6.6-2.45-13.22-4.85-19.79-7.36q-19.79-7.41-39.36-15.35,20.18,6.3,40.15,13.15c6.67,2.24,13.3,4.59,20,6.89l19.91,7.05,19.84,7.2c6.6,2.45,13.22,4.85,19.79,7.36Q876.07,295.58,895.64,303.52Z" transform="translate(-112 -234)"/><path class="cls-1" d="M897.64,333.52c-10.16-3.31-20.25-6.8-30.37-10.19L837,312.85c-20.18-7-40.27-14.21-60.37-21.42s-40.14-14.57-60.13-22.08l-30-11.27c-10-3.86-19.95-7.62-29.88-11.56,10.16,3.3,20.25,6.79,30.37,10.18l30.27,10.48c20.18,7,40.27,14.21,60.37,21.43s40.14,14.57,60.13,22.08l30,11.26C877.72,325.81,887.71,329.57,897.64,333.52Z" transform="translate(-112 -234)"/><path class="cls-1" d="M891.64,388.52c-15.95-5.35-31.83-10.88-47.75-16.31L796.25,355.6c-15.89-5.5-31.71-11.2-47.57-16.8l-47.54-16.87L653.68,304.8c-15.81-5.73-31.66-11.36-47.43-17.2l-47.36-17.39c-15.75-5.9-31.53-11.71-47.25-17.69,16,5.34,31.83,10.87,47.75,16.3L607,285.43c15.89,5.5,31.71,11.2,47.57,16.8l47.54,16.88,47.46,17.12C765.41,342,781.25,347.6,797,353.44l47.36,17.39C860.14,376.73,875.92,382.53,891.64,388.52Z" transform="translate(-112 -234)"/><path class="cls-1" d="M891.64,419.52c-20.2-6.89-40.33-14-60.5-20.94l-60.39-21.23c-20.14-7-40.21-14.28-60.32-21.43l-60.3-21.49-60.2-21.75c-20.06-7.28-40.16-14.45-60.18-21.83l-60.11-22c-20-7.44-40-14.78-60-22.31,20.2,6.89,40.33,14,60.5,20.93l60.39,21.23c20.14,7,40.21,14.29,60.32,21.43l60.3,21.5,60.2,21.75c20.06,7.27,40.16,14.45,60.18,21.83l60.11,22C851.64,404.65,871.67,412,891.64,419.52Z" transform="translate(-112 -234)"/><path class="cls-1" d="M891.64,452.52c-23.61-8.1-47.16-16.38-70.75-24.56L750.25,403.1c-23.56-8.25-47-16.7-70.57-25.05l-70.55-25.12-70.45-25.38c-23.48-8.48-47-16.86-70.43-25.45l-70.36-25.64c-23.41-8.65-46.86-17.21-70.25-25.94,23.61,8.09,47.16,16.37,70.75,24.55L469,299.93c23.56,8.25,47.05,16.7,70.57,25.05l70.55,25.13,70.45,25.37c23.48,8.48,47,16.87,70.43,25.46l70.36,25.64C844.8,435.23,868.25,443.78,891.64,452.52Z" transform="translate(-112 -234)"/><path class="cls-1" d="M897.64,361.52c-13.36-4.48-26.66-9.13-40-13.69l-39.89-14c-26.59-9.33-53.11-18.88-79.62-28.42s-53-19.24-79.38-29.08l-39.61-14.77c-13.17-5-26.37-9.95-39.5-15.06,13.37,4.47,26.67,9.12,40,13.68l39.89,14c26.59,9.33,53.11,18.88,79.62,28.43s53,19.24,79.38,29.08l39.61,14.76C871.3,351.48,884.51,356.41,897.64,361.52Z" transform="translate(-112 -234)"/><path class="cls-1" d="M873.64,515.52,783,483.31l-90.53-32.5L511.55,385.36,330.87,319.25,240.62,286c-30.05-11.2-60.13-22.3-90.14-33.59,30.24,10.65,60.43,21.47,90.64,32.2l90.54,32.5,180.91,65.46,180.67,66.11,90.25,33.29Z" transform="translate(-112 -234)"/><path class="cls-1" d="M895.64,489.52c-27.37-9.6-54.67-19.38-82-29.07L731.75,431.1c-27.31-9.75-54.55-19.7-81.83-29.55l-81.79-29.62L404.75,312.1,323.14,282c-27.17-10.15-54.37-20.21-81.5-30.44,27.37,9.59,54.67,19.37,82,29.06l81.89,29.35,163.62,59.18L650.86,399c27.22,10,54.48,19.86,81.67,29.95l81.61,30.14C841.31,469.23,868.51,479.28,895.64,489.52Z" transform="translate(-112 -234)"/><path class="cls-1" d="M202.6,521.55c-6.54-1.66-13-3.61-19.39-5.65-3.21-1-6.39-2.09-9.58-3.14l-9.53-3.3L154.63,506c-3.14-1.21-6.3-2.36-9.42-3.62-6.26-2.45-12.48-5-18.61-7.85,6.54,1.66,13,3.61,19.39,5.65,3.22,1,6.39,2.09,9.59,3.14l9.52,3.3,9.48,3.45c3.13,1.2,6.29,2.36,9.41,3.61C190.25,516.16,196.48,518.72,202.6,521.55Z" transform="translate(-112 -234)"/><path class="cls-1" d="M285.6,521.55q-20.16-6.3-40.14-13.15c-6.67-2.25-13.31-4.59-20-6.89l-19.9-7.05-19.85-7.2c-6.6-2.45-13.22-4.85-19.79-7.36q-19.78-7.39-39.36-15.35,20.18,6.3,40.15,13.15c6.67,2.24,13.3,4.59,20,6.89l19.9,7.05,19.84,7.2c6.6,2.46,13.22,4.86,19.79,7.36Q266,513.61,285.6,521.55Z" transform="translate(-112 -234)"/><path class="cls-1" d="M357.6,521.55q-29.16-9.69-58.14-19.91c-9.67-3.37-19.3-6.85-28.95-10.27l-28.9-10.43-28.85-10.58c-9.59-3.58-19.2-7.1-28.78-10.73q-28.77-10.78-57.34-22.11,29.17,9.68,58.14,19.91c9.67,3.37,19.3,6.84,29,10.27l28.89,10.43,28.85,10.58c9.59,3.58,19.2,7.11,28.78,10.74Q329,510.24,357.6,521.55Z" transform="translate(-112 -234)"/><path class="cls-1" d="M506.6,519.55c-16-5.35-31.83-10.88-47.75-16.31l-47.64-16.61c-15.89-5.49-31.71-11.19-47.57-16.8L316.1,453l-47.46-17.12c-15.81-5.74-31.66-11.36-47.43-17.2l-47.36-17.4c-15.75-5.9-31.53-11.7-47.25-17.69,16,5.35,31.83,10.88,47.75,16.31L222,416.47c15.89,5.49,31.71,11.2,47.57,16.8l47.55,16.87,47.45,17.13c15.81,5.73,31.66,11.36,47.43,17.2l47.36,17.39C475.1,507.76,490.88,513.57,506.6,519.55Z" transform="translate(-112 -234)"/><path class="cls-1" d="M609.6,521.55c-20.2-6.89-40.33-14-60.5-20.94l-60.39-21.23c-20.14-7-40.21-14.28-60.32-21.42l-60.29-21.5-60.21-21.75c-20.06-7.27-40.16-14.44-60.18-21.82l-60.11-22c-20-7.44-40-14.79-60-22.32,20.2,6.89,40.33,14,60.5,20.93l60.39,21.24c20.15,7,40.22,14.28,60.32,21.42l60.3,21.5,60.2,21.75c20.06,7.28,40.16,14.45,60.18,21.83l60.11,22C569.6,506.68,589.63,514,609.6,521.55Z" transform="translate(-112 -234)"/><path class="cls-1" d="M692.6,517.55c-23.61-8.1-47.16-16.38-70.75-24.56l-70.64-24.86c-23.56-8.24-47.05-16.69-70.57-25.05L410.1,418l-70.46-25.37c-23.48-8.49-47-16.86-70.43-25.45l-70.36-25.65c-23.41-8.65-46.86-17.2-70.25-25.94,23.62,8.1,47.17,16.38,70.75,24.56L270,365c23.56,8.24,47.05,16.7,70.57,25l70.55,25.12,70.45,25.38C505,449,528.55,457.38,552,466l70.36,25.64C645.76,500.26,669.22,508.82,692.6,517.55Z" transform="translate(-112 -234)"/><path class="cls-1" d="M418.64,521.52c-12.28-4.1-24.5-8.38-36.75-12.57L345.25,496.1c-24.43-8.58-48.78-17.38-73.12-26.17s-48.64-17.74-72.88-26.83l-36.36-13.64c-12.08-4.65-24.2-9.21-36.25-13.94,12.28,4.09,24.5,8.37,36.75,12.56L200,440.93c24.43,8.58,48.78,17.38,73.12,26.18s48.64,17.74,72.88,26.83l36.36,13.64C394.47,512.23,406.59,516.78,418.64,521.52Z" transform="translate(-112 -234)"/><path class="cls-1" d="M787.6,521.55c-27.36-9.6-54.66-19.38-82-29.06l-81.89-29.36c-27.31-9.75-54.55-19.69-81.82-29.55L460.09,404,296.71,344.14,215.1,314c-27.16-10.15-54.37-20.2-81.5-30.44,27.37,9.6,54.67,19.38,82,29.06L297.5,342l163.61,59.17L542.82,431c27.22,10,54.49,19.87,81.67,30l81.61,30.14C733.27,501.26,760.47,511.32,787.6,521.55Z" transform="translate(-112 -234)"/></g></g></svg>